<?xml version="1.0" standalone="no"?><!DOCTYPE svg PUBLIC "-//W3C//DTD SVG 1.1//EN" "http://www.w3.org/Graphics/SVG/1.1/DTD/svg11.dtd"><svg t="1722339308317" class="icon" viewBox="0 0 1024 1024" version="1.1" xmlns="http://www.w3.org/2000/svg" p-id="7178" xmlns:xlink="http://www.w3.org/1999/xlink" width="48" height="48"><path d="M642.346667 859.733333h-362.666667a32 32 0 0 1 0-64h362.666667a192 192 0 0 0 0-384H183.68a32 32 0 0 1 0-64h458.666667c141.376 0 256 114.624 256 256s-114.624 256-256 256z" fill="#FFFFFF" p-id="7179"></path><path d="M315.733333 589.013333a32.64 32.64 0 0 1-22.613333-9.386666l-177.066667-177.28a31.786667 31.786667 0 0 1 0-45.226667l177.066667-177.066667a32 32 0 1 1 45.226667 45.226667L183.893333 379.733333l154.453334 154.666667a32 32 0 0 1-22.613334 54.613333z" fill="#FFFFFF" p-id="7180"></path></svg>